<mxfile host="Electron" modified="2023-10-18T11:20:08.349Z" agent="Mozilla/5.0 (Windows NT 10.0; Win64; x64) AppleWebKit/537.36 (KHTML, like Gecko) draw.io/21.6.5 Chrome/114.0.5735.243 Electron/25.3.1 Safari/537.36" etag="3cWDB4weWEVdSj1cY4nA" version="21.6.5" type="device">
  <diagram name="第 1 页" id="P1C0n3h9hCA3SzZjqbPb">
    <mxGraphModel dx="1034" dy="614" grid="1" gridSize="10" guides="1" tooltips="1" connect="1" arrows="1" fold="1" page="1" pageScale="1" pageWidth="3300" pageHeight="4681" math="0" shadow="0">
      <root>
        <mxCell id="0" />
        <mxCell id="1" parent="0" />
        <mxCell id="6LHwLXReSlwmLyUbBP0p-2" style="edgeStyle=orthogonalEdgeStyle;rounded=0;orthogonalLoop=1;jettySize=auto;html=1;entryX=0;entryY=0.5;entryDx=0;entryDy=0;strokeColor=#FF3399;" parent="1" source="c6XTX4q3lhD4SG148AAr-5" target="6LHwLXReSlwmLyUbBP0p-1" edge="1">
          <mxGeometry relative="1" as="geometry">
            <Array as="points">
              <mxPoint x="445" y="20" />
              <mxPoint x="700" y="20" />
              <mxPoint x="700" y="80" />
              <mxPoint x="830" y="80" />
            </Array>
          </mxGeometry>
        </mxCell>
        <mxCell id="c6XTX4q3lhD4SG148AAr-1" value="" style="rounded=0;whiteSpace=wrap;html=1;" parent="1" vertex="1">
          <mxGeometry width="720" height="560" as="geometry" />
        </mxCell>
        <mxCell id="6LHwLXReSlwmLyUbBP0p-4" style="edgeStyle=orthogonalEdgeStyle;rounded=0;orthogonalLoop=1;jettySize=auto;html=1;entryX=0;entryY=0.5;entryDx=0;entryDy=0;strokeColor=#FF33FF;" parent="1" source="c6XTX4q3lhD4SG148AAr-5" target="6LHwLXReSlwmLyUbBP0p-3" edge="1">
          <mxGeometry relative="1" as="geometry">
            <Array as="points">
              <mxPoint x="445" y="20" />
              <mxPoint x="700" y="20" />
              <mxPoint x="700" y="205" />
            </Array>
          </mxGeometry>
        </mxCell>
        <mxCell id="c6XTX4q3lhD4SG148AAr-5" value="修改对应cell&lt;br&gt;内容" style="labelPosition=center;verticalLabelPosition=middle;align=center;html=1;shape=mxgraph.basic.shaded_button;dx=10;fillColor=#E6E6E6;strokeColor=none;whiteSpace=wrap;" parent="1" vertex="1">
          <mxGeometry x="400" y="30" width="90" height="40" as="geometry" />
        </mxCell>
        <mxCell id="6LHwLXReSlwmLyUbBP0p-15" style="edgeStyle=orthogonalEdgeStyle;rounded=0;orthogonalLoop=1;jettySize=auto;html=1;entryX=0;entryY=0.5;entryDx=0;entryDy=0;strokeColor=#0000CC;" parent="1" source="c6XTX4q3lhD4SG148AAr-6" target="6LHwLXReSlwmLyUbBP0p-16" edge="1">
          <mxGeometry relative="1" as="geometry">
            <mxPoint x="880" y="390" as="targetPoint" />
            <Array as="points">
              <mxPoint x="690" y="120" />
              <mxPoint x="690" y="270" />
              <mxPoint x="765" y="270" />
              <mxPoint x="765" y="385" />
            </Array>
          </mxGeometry>
        </mxCell>
        <mxCell id="c6XTX4q3lhD4SG148AAr-6" value="删除对应行" style="labelPosition=center;verticalLabelPosition=middle;align=center;html=1;shape=mxgraph.basic.shaded_button;dx=10;fillColor=#E6E6E6;strokeColor=none;whiteSpace=wrap;" parent="1" vertex="1">
          <mxGeometry x="560" y="100" width="90" height="40" as="geometry" />
        </mxCell>
        <mxCell id="c6XTX4q3lhD4SG148AAr-7" value="新建行" style="labelPosition=center;verticalLabelPosition=middle;align=center;html=1;shape=mxgraph.basic.shaded_button;dx=10;fillColor=#E6E6E6;strokeColor=none;whiteSpace=wrap;" parent="1" vertex="1">
          <mxGeometry x="400" y="100" width="90" height="40" as="geometry" />
        </mxCell>
        <mxCell id="c6XTX4q3lhD4SG148AAr-11" value="输入框" style="rounded=0;whiteSpace=wrap;html=1;" parent="1" vertex="1">
          <mxGeometry x="565" y="35" width="80" height="30" as="geometry" />
        </mxCell>
        <mxCell id="xKWnP8ABoIiveYtt428h-1" value="活动内容" style="rounded=1;whiteSpace=wrap;html=1;" parent="1" vertex="1">
          <mxGeometry x="20" y="10" width="300" height="250" as="geometry" />
        </mxCell>
        <mxCell id="xKWnP8ABoIiveYtt428h-2" value="活动类型" style="rounded=1;whiteSpace=wrap;html=1;" parent="1" vertex="1">
          <mxGeometry x="20" y="270" width="300" height="270" as="geometry" />
        </mxCell>
        <mxCell id="xKWnP8ABoIiveYtt428h-3" value="活动" style="rounded=1;whiteSpace=wrap;html=1;" parent="1" vertex="1">
          <mxGeometry x="370" y="180" width="300" height="360" as="geometry" />
        </mxCell>
        <mxCell id="6LHwLXReSlwmLyUbBP0p-10" style="edgeStyle=orthogonalEdgeStyle;rounded=0;orthogonalLoop=1;jettySize=auto;html=1;entryX=0;entryY=0.603;entryDx=0;entryDy=0;entryPerimeter=0;" parent="1" source="6LHwLXReSlwmLyUbBP0p-1" target="6LHwLXReSlwmLyUbBP0p-9" edge="1">
          <mxGeometry relative="1" as="geometry" />
        </mxCell>
        <mxCell id="6LHwLXReSlwmLyUbBP0p-1" value="&lt;div style=&quot;color: rgb(214, 214, 221); background-color: rgb(24, 24, 24); font-family: Consolas, &amp;quot;Courier New&amp;quot;, monospace; line-height: 19px; font-size: 18px;&quot;&gt;&lt;font style=&quot;font-size: 18px;&quot;&gt;self.&lt;span style=&quot;color: rgb(170, 155, 245);&quot;&gt;table_clicked&lt;/span&gt;= &lt;span style=&quot;color: rgb(227, 148, 220);&quot;&gt;&#39;activity_content&#39;/&lt;/span&gt;&lt;/font&gt;&lt;/div&gt;&lt;div style=&quot;color: rgb(214, 214, 221); background-color: rgb(24, 24, 24); font-family: Consolas, &amp;quot;Courier New&amp;quot;, monospace; line-height: 19px; font-size: 18px;&quot;&gt;&lt;span style=&quot;color: rgb(227, 148, 220);&quot;&gt;&lt;font style=&quot;font-size: 18px;&quot;&gt;&#39;activity_type&#39;&lt;/font&gt;&lt;/span&gt;&lt;/div&gt;" style="ellipse;whiteSpace=wrap;html=1;" parent="1" vertex="1">
          <mxGeometry x="830" y="20" width="220" height="110" as="geometry" />
        </mxCell>
        <mxCell id="6LHwLXReSlwmLyUbBP0p-6" style="edgeStyle=orthogonalEdgeStyle;rounded=0;orthogonalLoop=1;jettySize=auto;html=1;exitX=1;exitY=0.5;exitDx=0;exitDy=0;" parent="1" source="6LHwLXReSlwmLyUbBP0p-3" target="6LHwLXReSlwmLyUbBP0p-5" edge="1">
          <mxGeometry relative="1" as="geometry" />
        </mxCell>
        <mxCell id="6LHwLXReSlwmLyUbBP0p-3" value="&lt;div style=&quot;border-color: var(--border-color); color: rgb(214, 214, 221); background-color: rgb(24, 24, 24); font-family: Consolas, &amp;quot;Courier New&amp;quot;, monospace; line-height: 19px; font-size: 18px;&quot;&gt;&lt;font style=&quot;font-size: 18px;&quot;&gt;self.table_clicked=&lt;/font&gt;&lt;/div&gt;&lt;div style=&quot;border-color: var(--border-color); color: rgb(214, 214, 221); background-color: rgb(24, 24, 24); font-family: Consolas, &amp;quot;Courier New&amp;quot;, monospace; line-height: 19px; font-size: 18px;&quot;&gt;&lt;font style=&quot;font-size: 18px;&quot;&gt;&amp;nbsp;&lt;span style=&quot;border-color: var(--border-color); color: rgb(227, 148, 220);&quot;&gt;&#39;activity&lt;/span&gt;&lt;/font&gt;&lt;/div&gt;" style="ellipse;whiteSpace=wrap;html=1;" parent="1" vertex="1">
          <mxGeometry x="845" y="150" width="190" height="110" as="geometry" />
        </mxCell>
        <mxCell id="6LHwLXReSlwmLyUbBP0p-8" style="edgeStyle=orthogonalEdgeStyle;rounded=0;orthogonalLoop=1;jettySize=auto;html=1;exitX=1;exitY=0.5;exitDx=0;exitDy=0;entryX=0;entryY=0.5;entryDx=0;entryDy=0;" parent="1" source="6LHwLXReSlwmLyUbBP0p-5" target="6LHwLXReSlwmLyUbBP0p-7" edge="1">
          <mxGeometry relative="1" as="geometry" />
        </mxCell>
        <mxCell id="6LHwLXReSlwmLyUbBP0p-5" value="&lt;font style=&quot;font-size: 18px;&quot;&gt;self.click_column_name=&lt;br&gt;location（基于内容）&lt;br&gt;location（基于类型）&lt;/font&gt;" style="ellipse;whiteSpace=wrap;html=1;" parent="1" vertex="1">
          <mxGeometry x="1100" y="165" width="330" height="80" as="geometry" />
        </mxCell>
        <mxCell id="6LHwLXReSlwmLyUbBP0p-7" value="&lt;font color=&quot;#ff0000&quot; style=&quot;font-size: 19px;&quot;&gt;3.1&lt;/font&gt;" style="shape=process;whiteSpace=wrap;html=1;backgroundOutline=1;" parent="1" vertex="1">
          <mxGeometry x="1520" y="175" width="120" height="60" as="geometry" />
        </mxCell>
        <mxCell id="6LHwLXReSlwmLyUbBP0p-13" style="edgeStyle=orthogonalEdgeStyle;rounded=0;orthogonalLoop=1;jettySize=auto;html=1;entryX=0;entryY=0.5;entryDx=0;entryDy=0;" parent="1" source="6LHwLXReSlwmLyUbBP0p-9" target="6LHwLXReSlwmLyUbBP0p-12" edge="1">
          <mxGeometry relative="1" as="geometry" />
        </mxCell>
        <mxCell id="6LHwLXReSlwmLyUbBP0p-19" value="NO" style="edgeLabel;html=1;align=center;verticalAlign=middle;resizable=0;points=[];fontStyle=1" parent="6LHwLXReSlwmLyUbBP0p-13" vertex="1" connectable="0">
          <mxGeometry x="0.2605" y="2" relative="1" as="geometry">
            <mxPoint x="28" y="2" as="offset" />
          </mxGeometry>
        </mxCell>
        <mxCell id="6LHwLXReSlwmLyUbBP0p-21" style="edgeStyle=orthogonalEdgeStyle;rounded=0;orthogonalLoop=1;jettySize=auto;html=1;entryX=0;entryY=0.5;entryDx=0;entryDy=0;" parent="1" source="6LHwLXReSlwmLyUbBP0p-9" target="6LHwLXReSlwmLyUbBP0p-20" edge="1">
          <mxGeometry relative="1" as="geometry" />
        </mxCell>
        <mxCell id="6LHwLXReSlwmLyUbBP0p-22" value="YES" style="edgeLabel;html=1;align=center;verticalAlign=middle;resizable=0;points=[];fontStyle=1" parent="6LHwLXReSlwmLyUbBP0p-21" vertex="1" connectable="0">
          <mxGeometry x="0.676" y="1" relative="1" as="geometry">
            <mxPoint as="offset" />
          </mxGeometry>
        </mxCell>
        <mxCell id="6LHwLXReSlwmLyUbBP0p-9" value="&lt;font style=&quot;font-size: 18px;&quot;&gt;self.click_column_name=？&lt;br&gt;location（基于内容）&lt;br&gt;location（基于类型）&lt;/font&gt;" style="ellipse;whiteSpace=wrap;html=1;" parent="1" vertex="1">
          <mxGeometry x="1110" y="30" width="320" height="80" as="geometry" />
        </mxCell>
        <mxCell id="6LHwLXReSlwmLyUbBP0p-12" value="&lt;font color=&quot;#ff0000&quot; style=&quot;font-size: 19px;&quot;&gt;3.2&lt;/font&gt;" style="shape=process;whiteSpace=wrap;html=1;backgroundOutline=1;" parent="1" vertex="1">
          <mxGeometry x="1580" y="5" width="120" height="60" as="geometry" />
        </mxCell>
        <mxCell id="6LHwLXReSlwmLyUbBP0p-18" style="edgeStyle=orthogonalEdgeStyle;rounded=0;orthogonalLoop=1;jettySize=auto;html=1;entryX=0;entryY=0.5;entryDx=0;entryDy=0;" parent="1" source="6LHwLXReSlwmLyUbBP0p-16" target="6LHwLXReSlwmLyUbBP0p-17" edge="1">
          <mxGeometry relative="1" as="geometry" />
        </mxCell>
        <mxCell id="6LHwLXReSlwmLyUbBP0p-16" value="&lt;div style=&quot;color: rgb(214, 214, 221); background-color: rgb(24, 24, 24); font-family: Consolas, &amp;quot;Courier New&amp;quot;, monospace; line-height: 19px; font-size: 18px;&quot;&gt;&lt;font style=&quot;font-size: 18px;&quot;&gt;self.&lt;span style=&quot;color: rgb(170, 155, 245);&quot;&gt;table_clicked&lt;/span&gt;= &lt;span style=&quot;color: rgb(227, 148, 220);&quot;&gt;&#39;activity_content&#39;/&lt;/span&gt;&lt;/font&gt;&lt;/div&gt;&lt;div style=&quot;color: rgb(214, 214, 221); background-color: rgb(24, 24, 24); font-family: Consolas, &amp;quot;Courier New&amp;quot;, monospace; line-height: 19px; font-size: 18px;&quot;&gt;&lt;span style=&quot;color: rgb(227, 148, 220);&quot;&gt;&lt;font style=&quot;font-size: 18px;&quot;&gt;&#39;activity_type&#39;&lt;/font&gt;&lt;/span&gt;&lt;/div&gt;" style="ellipse;whiteSpace=wrap;html=1;" parent="1" vertex="1">
          <mxGeometry x="880" y="330" width="220" height="110" as="geometry" />
        </mxCell>
        <mxCell id="6LHwLXReSlwmLyUbBP0p-17" value="&lt;font color=&quot;#ff0000&quot; style=&quot;font-size: 19px;&quot;&gt;3.3&lt;/font&gt;" style="shape=process;whiteSpace=wrap;html=1;backgroundOutline=1;" parent="1" vertex="1">
          <mxGeometry x="1290" y="355" width="120" height="60" as="geometry" />
        </mxCell>
        <mxCell id="6LHwLXReSlwmLyUbBP0p-20" value="&lt;font color=&quot;#ff0000&quot; style=&quot;font-size: 19px;&quot;&gt;3.4&lt;/font&gt;" style="shape=process;whiteSpace=wrap;html=1;backgroundOutline=1;" parent="1" vertex="1">
          <mxGeometry x="1580" y="90" width="120" height="60" as="geometry" />
        </mxCell>
        <mxCell id="s8BIH7yJyc8DXGC9uBdi-1" value="&lt;font color=&quot;#ff0080&quot;&gt;弃用！perhaps&lt;/font&gt;" style="text;html=1;strokeColor=none;fillColor=none;align=center;verticalAlign=middle;whiteSpace=wrap;rounded=0;" vertex="1" parent="1">
          <mxGeometry x="350" y="105" width="60" height="30" as="geometry" />
        </mxCell>
      </root>
    </mxGraphModel>
  </diagram>
</mxfile>
